<?xml version="1.0" encoding="UTF-8" standalone="no"?>
<svg width="50px" height="50px" viewBox="0 0 50 50" version="1.1" xmlns="http://www.w3.org/2000/svg" xmlns:xlink="http://www.w3.org/1999/xlink">
    <!-- Generator: Sketch 47.1 (45422) - http://www.bohemiancoding.com/sketch -->
    <title>ic_shipping</title>
    <desc>Created with Sketch.</desc>
    <defs></defs>
    <g id="Symbols" stroke="none" stroke-width="1" fill="none" fill-rule="evenodd">
        <g id="ic_shipping">
            <rect id="Rectangle-2" x="0" y="0" width="50" height="50"></rect>
            <g transform="translate(25.000000, 25.100000) scale(-1, 1) translate(-25.000000, -25.100000) translate(2.000000, 9.000000)" stroke="#231F20" stroke-width="1.25" stroke-linecap="round" stroke-linejoin="round">
                <path d="M13,28 C13,30.21 11.209,32 9,32 C6.789,32 5,30.21 5,28 C5,25.792 6.789,24 9,24 C11.209,24 13,25.792 13,28 L13,28 Z" id="Stroke-4683"></path>
                <path d="M41,28 C41,30.21 39.209,32 37,32 C34.789,32 33,30.21 33,28 C33,25.792 34.789,24 37,24 C39.209,24 41,25.792 41,28 L41,28 Z" id="Stroke-4684"></path>
                <polyline id="Stroke-4685" points="5 28 0 28 0 17 4 13 9 4 18 4 18 0 46 0 46 28 41 28"></polyline>
                <path d="M13,27.6 L33,27.6" id="Stroke-4686"></path>
                <polyline id="Stroke-4687" points="14 8 11 8 8 14"></polyline>
                <path d="M17.94,4.025 L17.94,22.4253594" id="Stroke-4688"></path>
                <path d="M0,23 L46,23" id="Stroke-4689"></path>
            </g>
        </g>
    </g>
</svg>